<?xml version="1.0" standalone="no"?>
<!DOCTYPE svg PUBLIC "-//W3C//DTD SVG 20010904//EN"
 "http://www.w3.org/TR/2001/REC-SVG-20010904/DTD/svg10.dtd">
<svg version="1.0" xmlns="http://www.w3.org/2000/svg"
 width="1024pt" height="1024pt" viewBox="0 0 1024 1024"
 preserveAspectRatio="xMidYMid meet">
<metadata>
Created by potrace 1.16, written by Peter Selinger 2001-2019
</metadata>
<g transform="translate(0.000000,1024.000000) scale(0.100000,-0.100000)"
fill="#FFFFFF" stroke="none">
<path d="M4845 7660 c-209 -33 -409 -171 -519 -359 -137 -235 -172 -542 -120
-1066 20 -209 79 -541 120 -682 6 -21 24 -15 34 11 12 32 232 324 304 402 55
61 55 61 46 120 -35 227 -38 682 -6 799 22 82 87 211 131 263 87 100 179 120
299 64 85 -40 158 -109 196 -185 35 -71 36 -89 10 -191 -42 -165 -143 -337
-339 -576 -380 -463 -518 -641 -604 -780 -231 -375 -269 -765 -105 -1085 32
-61 64 -102 132 -171 137 -137 286 -215 511 -267 85 -19 126 -21 720 -24 347
-2 744 -4 883 -6 252 -2 252 -2 252 100 0 187 -58 399 -147 533 -79 119 -214
235 -338 289 -126 55 -304 80 -585 81 -231 1 -362 24 -496 90 -83 41 -217 152
-229 190 -4 11 -10 20 -15 20 -15 0 -136 -182 -184 -278 -46 -92 -46 -92 10
-145 153 -142 351 -235 577 -272 58 -9 200 -17 382 -20 334 -7 416 -15 538
-56 88 -29 177 -74 177 -89 0 -4 -28 -1 -62 6 -101 23 -316 27 -728 15 -418
-12 -559 -6 -689 30 -154 42 -316 151 -361 244 -21 43 -21 46 -6 107 25 98
136 309 236 448 49 69 156 206 238 305 284 345 369 463 466 646 74 140 112
232 148 364 25 93 30 134 35 265 4 142 3 163 -21 252 -76 294 -272 502 -550
582 -100 30 -247 40 -341 26z"/>
</g>
</svg>
